<?xml version="1.0" encoding="UTF-8"?>
<!-- Generator: visioncortex VTracer 0.6.3 -->
<svg version="1.1" xmlns="http://www.w3.org/2000/svg" width="1187" height="1187">
<path d="M0,0 L829,0 L839,6 L846,14 L850,25 L850,142 L849,850 L846,859 L838,869 L836,869 L834,873 L820,887 L818,887 L818,889 L816,889 L816,891 L814,891 L814,893 L812,893 L812,895 L810,895 L810,897 L802,904 L683,1023 L678,1028 L674,1033 L666,1040 L655,1051 L654,1053 L652,1053 L652,1055 L644,1062 L615,1091 L610,1097 L602,1104 L537,1169 L530,1177 L522,1183 L516,1186 L512,1187 L-299,1187 L-314,1185 L-323,1181 L-330,1175 L-335,1166 L-337,1155 L-337,344 L-336,333 L-333,327 L-326,318 L-318,311 L-283,276 L-277,268 L-269,261 L-264,256 L-257,249 L-252,244 L-209,201 L-202,193 L-194,187 L-187,179 L-175,168 L-154,147 L-147,139 L-137,130 L-133,125 L-125,118 L-81,74 L-76,68 L-74,68 L-72,64 L-34,26 L-32,26 L-32,24 L-24,17 L-15,8 L-4,1 Z M20,62 L-194,276 L-201,284 L-227,310 L-227,311 L494,311 L647,158 L654,150 L740,64 L740,63 L154,62 Z M786,107 L777,117 L747,147 L740,153 L735,159 L728,165 L723,171 L718,176 L542,352 L538,356 L537,358 L537,1079 L541,1077 L645,973 L651,968 L657,961 L664,955 L664,953 L668,951 L669,948 L672,947 L672,945 L676,943 L677,940 L680,939 L685,933 L691,928 L697,921 L702,916 L786,832 L788,824 L788,108 Z M-273,374 L-275,375 L-275,1124 L-269,1125 L302,1124 L474,1124 L475,1123 L475,375 L472,374 Z " fill="#FFCC00" transform="translate(337,0)"/>
<path d="M0,0 L56,0 L83,2 L106,6 L128,12 L155,21 L180,32 L201,43 L220,55 L238,68 L251,79 L259,86 L269,95 L278,104 L285,112 L297,126 L310,144 L320,159 L334,184 L345,208 L354,233 L361,257 L366,281 L369,303 L370,314 L370,363 L367,390 L362,416 L355,441 L347,464 L336,489 L325,510 L312,531 L298,550 L287,563 L278,573 L272,580 L264,587 L256,595 L245,604 L228,617 L208,630 L186,642 L165,652 L138,662 L114,669 L84,675 L60,678 L49,679 L9,679 L-27,675 L-56,669 L-80,662 L-102,654 L-120,646 L-140,636 L-158,625 L-178,611 L-189,602 L-203,590 L-226,567 L-235,556 L-247,541 L-261,520 L-271,503 L-282,482 L-293,455 L-301,430 L-307,405 L-311,378 L-313,356 L-313,326 L-310,295 L-305,266 L-298,240 L-289,214 L-277,187 L-264,163 L-248,139 L-238,126 L-229,115 L-218,103 L-197,82 L-186,73 L-172,62 L-151,48 L-130,36 L-107,25 L-78,14 L-49,6 L-27,2 Z M-4,26 L-21,28 L-43,33 L-63,39 L-87,48 L-101,55 L-108,61 L-110,65 L-109,72 L-93,88 L-86,96 L-79,103 L-70,114 L-62,123 L-47,143 L-36,159 L-24,179 L-13,202 L-7,221 L-5,231 L-4,243 L5,241 L15,239 L48,239 L64,243 L70,245 L78,212 L80,200 L81,178 L81,132 L78,113 L74,90 L69,72 L61,55 L54,46 L49,41 L42,35 L31,30 L20,27 L11,26 Z M133,44 L126,47 L124,54 L122,94 L118,133 L113,165 L106,189 L98,209 L87,230 L78,242 L74,245 L74,247 L86,253 L97,261 L107,270 L116,281 L125,296 L127,300 L133,298 L150,288 L164,278 L178,267 L191,255 L207,239 L216,228 L225,217 L239,196 L250,175 L255,162 L257,155 L258,147 L258,135 L255,125 L245,110 L236,99 L234,99 L234,97 L223,88 L211,79 L192,67 L175,58 L158,50 L143,45 Z M-170,113 L-183,117 L-195,124 L-206,133 L-214,141 L-225,155 L-232,165 L-244,185 L-257,210 L-263,227 L-263,238 L-261,243 L-254,246 L-204,250 L-170,254 L-141,259 L-119,265 L-104,271 L-81,283 L-70,291 L-63,297 L-51,278 L-39,265 L-26,255 L-14,248 L-8,245 L-14,234 L-23,218 L-35,202 L-46,189 L-60,174 L-72,163 L-85,152 L-101,140 L-118,129 L-136,119 L-148,114 L-153,113 Z M301,202 L295,206 L283,218 L275,225 L265,234 L254,243 L241,254 L224,267 L210,277 L196,285 L177,294 L155,302 L138,306 L130,307 L134,325 L134,358 L129,377 L128,382 L152,388 L172,392 L183,393 L208,393 L244,390 L272,386 L298,380 L314,374 L325,367 L332,360 L338,350 L342,340 L344,329 L344,302 L341,282 L335,259 L326,232 L318,214 L311,205 L306,202 Z M23,265 L8,268 L-5,273 L-17,281 L-28,291 L-35,301 L-43,317 L-46,329 L-47,337 L-47,347 L-44,364 L-39,376 L-33,387 L-22,399 L-14,406 L3,415 L18,419 L26,420 L36,420 L52,417 L65,412 L75,406 L85,398 L95,386 L101,376 L106,362 L109,347 L109,337 L104,316 L96,300 L89,291 L79,281 L66,273 L54,268 L39,265 Z M-166,286 L-194,288 L-224,293 L-245,299 L-259,306 L-271,317 L-277,327 L-281,338 L-283,347 L-283,378 L-279,401 L-273,424 L-265,448 L-259,462 L-253,470 L-250,473 L-243,474 L-236,470 L-225,459 L-217,452 L-206,443 L-193,432 L-180,422 L-164,410 L-147,399 L-130,390 L-109,382 L-92,377 L-82,375 L-68,374 L-70,363 L-71,358 L-71,325 L-67,309 L-64,299 L-79,296 L-86,293 L-91,291 L-110,287 L-120,286 Z M-64,298 Z M-67,379 L-77,385 L-92,394 L-108,406 L-121,417 L-137,432 L-148,444 L-159,457 L-171,473 L-183,492 L-193,513 L-197,529 L-197,537 L-195,546 L-189,558 L-182,567 L-173,577 L-162,587 L-147,598 L-131,608 L-113,618 L-92,628 L-81,632 L-71,633 L-66,630 L-64,624 L-62,586 L-58,550 L-52,518 L-45,492 L-37,471 L-29,455 L-22,444 L-15,436 L-19,432 L-33,423 L-46,411 L-55,399 L-62,387 L-65,379 Z M126,386 L114,405 L100,420 L86,430 L72,437 L73,441 L87,466 L96,477 L107,491 L121,506 L129,514 L140,523 L151,532 L169,544 L185,553 L200,561 L209,564 L230,566 L241,564 L252,558 L265,546 L277,534 L290,517 L302,498 L312,480 L321,461 L324,451 L324,436 L322,434 L276,431 L248,428 L216,423 L185,416 L162,408 L143,398 L130,389 Z M-12,437 L-18,459 L-23,487 L-25,512 L-25,534 L-23,559 L-17,595 L-11,616 L-7,626 L0,636 L9,644 L20,649 L34,652 L53,653 L86,650 L112,644 L141,634 L157,626 L165,620 L166,615 L158,605 L146,592 L137,581 L125,567 L116,556 L104,540 L94,525 L82,504 L73,484 L67,465 L64,450 L63,441 L47,444 L16,444 L2,441 L-9,437 Z " fill="#FFCC00" transform="translate(406,411)"/>
<path d="M0,0 L722,0 L721,4 L717,6 L719,3 L134,2 L0,1 Z " fill="#FFCC00" transform="translate(357,61)"/>
<path d="M0,0 L1,3 L-12,15 L-85,88 L-85,85 Z " fill="#FFCC00" transform="translate(1070,70)"/>
<path d="M0,0 L1,3 L-1,12 L-2,41 L-3,41 L-3,4 Z " fill="#FFCC00" transform="translate(125,746)"/>
<path d="M0,0 L1,3 L-8,11 L-8,8 Z " fill="#FFCC00" transform="translate(1070,70)"/>
</svg>
